#!OML:ASF H:\Male1\Project 1\Capture day 1\Session 1\Male1.ASF
:FULLY-SPECIFIED
:DEGREES
595
root 15.22 15.2403 -2.76895 -911.496 54.3591 -186.118
lowerback 10.7196 0.101836 -3.71262
upperback 7.74566 0.385472 0.70718
thorax 2.06955 0.266307 2.79494
lowerneck -2.39169 0.746581 6.37054
upperneck 4.89892 1.10395 -6.67096
head 2.08605 0.53288 -3.28952
rclavicle 5.13858e-014 -1.27222e-014
rhumerus -30.6826 -32.2882 -36.8712
rradius 25.3183
rwrist -23.4398
rhand -18.7449 -9.3416
rfingers 7.12502
rthumb 7.55139 -39.1868
lclavicle 5.13858e-014 -1.27222e-014
lhumerus -11.4676 17.2585 16.042
lradius 39.4691
lwrist 14.6842
lhand -33.3803 26.5984
lfingers 7.12502
lthumb -6.58135 56.4761
rfemur -24.7846 10.0276 21.3486
rtibia 41.4784
rfoot -22.6863 -24.3327
rtoes -29.417
lfemur 5.59912 -6.53737 -29.7535
ltibia 39.8342
lfoot -12.213 7.80155
ltoes -17.8895
596
root 15.6157 15.2388 -3.04955 -911.721 53.9797 -186.214
lowerback 10.6169 -0.0104049 -3.59928
upperback 7.70672 0.244451 0.655575
thorax 2.09349 0.199424 2.68973
lowerneck -2.84854 0.842423 6.28964
upperneck 5.30134 1.23137 -6.68043
head 2.31231 0.588671 -3.28133
rclavicle -3.35946e-014 2.98177e-014
rhumerus -31.3819 -32.0661 -36.1669
rradius 25.3137
rwrist -23.2403
rhand -19.1251 -9.11017
rfingers 7.12502
rthumb 7.18436 -38.9682
lclavicle -3.35946e-014 2.98177e-014
lhumerus -11.7338 16.6397 16.8783
lradius 38.9913
lwrist 14.4859
lhand -32.4235 25.5695
lfingers 7.12502
lthumb -5.65764 55.4739
rfemur -24.0427 12.0982 20.9953
rtibia 37.2532
rfoot -23.2717 -23.7765
rtoes -26.9786
lfemur 5.35932 -5.64319 -29.1906
ltibia 43.1588
lfoot -10.2639 5.45389
ltoes -17.2345
597
root 16.0067 15.2046 -3.32471 -912.048 53.5315 -186.239
lowerback 10.6644 -0.137986 -3.49479
upperback 7.7026 0.0850988 0.583478
thorax 2.07356 0.127149 2.5695
lowerneck -3.28341 0.934234 6.2624
upperneck 5.69252 1.34819 -6.63774
head 2.53159 0.641444 -3.26537
rclavicle 3.598e-014 -1.55052e-014
rhumerus -32.0074 -31.8987 -35.4021
rradius 25.1962
rwrist -22.9332
rhand -19.3312 -8.94847
rfingers 7.12502
rthumb 6.98541 -38.8132
lclavicle 3.598e-014 -1.55052e-014
lhumerus -12.0353 15.9405 17.3742
lradius 38.6194
lwrist 14.2109
lhand -31.347 24.4963
lfingers 7.12502
lthumb -4.6182 54.426
rfemur -22.9978 13.8154 20.7253
rtibia 34.1489
rfoot -23.0034 -23.2498
rtoes -23.5946
lfemur 4.72588 -4.7174 -28.4015
ltibia 47.2582
lfoot -8.62626 3.24375
ltoes -15.5598
598
root 16.3921 15.1459 -3.59442 -912.422 53.0364 -186.162
lowerback 10.8438 -0.268614 -3.39241
upperback 7.71719 -0.0773031 0.517794
thorax 2.00144 0.0561235 2.45786
lowerneck -3.62949 1.01399 6.29394
upperneck 6.02266 1.44778 -6.60445
head 2.71513 0.688097 -3.26318
rclavicle 4.01545e-014 7.55382e-015
rhumerus -32.5462 -31.758 -34.5471
rradius 24.9477
rwrist -22.515
rhand -19.4359 -8.96432
rfingers 7.12502
rthumb 6.88434 -38.8324
lclavicle 4.01545e-014 7.55382e-015
lhumerus -12.4002 15.1471 17.5693
lradius 38.3887
lwrist 13.9513
lhand -30.1863 23.5492
lfingers 7.12502
lthumb -3.49741 53.5002
rfemur -21.769 14.6729 20.7426
rtibia 32.3395
rfoot -21.7393 -22.9116
rtoes -19.8901
lfemur 3.7866 -3.84731 -27.416
ltibia 51.825
lfoot -7.41972 1.7908
ltoes -13.2673
599
root 16.7696 15.0673 -3.85732 -912.791 52.5661 -185.901
lowerback 11.2207 -0.372324 -3.2336
upperback 7.74201 -0.199702 0.499634
thorax 1.82941 0.010222 2.36171
lowerneck -3.82142 1.06647 6.32494
upperneck 6.22217 1.51422 -6.58857
head 2.82419 0.720068 -3.26527
rclavicle 1.3418e-014 -1.35174e-014
rhumerus -32.9933 -31.5867 -33.5899
rradius 24.5758
rwrist -22.0507
rhand -19.5658 -9.16258
rfingers 7.12502
rthumb 6.75896 -39.0347
lclavicle 1.3418e-014 -1.35174e-014
lhumerus -12.8498 14.303 17.5789
lradius 38.3163
lwrist 13.7904
lhand -29.1053 22.7885
lfingers 7.12502
lthumb -2.45344 52.7541
rfemur -20.4429 14.4269 21.184
rtibia 31.8335
rfoot -19.703 -22.456
rtoes -17.4278
lfemur 2.61846 -3.04468 -26.2222
ltibia 56.585
lfoot -6.71931 1.45988
ltoes -11.7886
600
root 17.1352 14.9788 -4.1148 -912.622 52.2723 -184.96
lowerback 11.6846 -0.447887 -2.6504
upperback 7.76445 -0.246279 0.631582
thorax 1.5972 0.0157982 2.17696
lowerneck -3.91788 1.09597 6.3377
upperneck 6.31431 1.55709 -6.64638
head 2.8784 0.73917 -3.28839
rclavicle -2.42517e-014 9.54166e-015
rhumerus -33.3553 -31.3625 -32.5911
rradius 24.2095
rwrist -21.6302
rhand -19.8716 -9.50822
rfingers 7.12502
rthumb 6.4638 -39.3896
lclavicle -2.42517e-014 9.54166e-015
lhumerus -13.4048 13.5439 17.5578
lradius 38.3787
lwrist 13.705
lhand -28.3257 22.2498
lfingers 7.12502
lthumb -1.70043 52.2228
rfemur -19.2255 13.3698 22.2812
rtibia 32.4334
rfoot -17.4785 -21.8016
rtoes -15.6053
lfemur 1.0901 -2.37046 -24.5398
ltibia 61.308
lfoot -6.61285 2.18714
ltoes -11.0076
601
root 17.4871 14.8911 -4.36516 -911.84 52.1731 -183.342
lowerback 12.1744 -0.49037 -1.6396
upperback 7.79298 -0.197986 0.92854
thorax 1.34901 0.080757 1.91359
lowerneck -3.90907 1.11371 6.32606
upperneck 6.23558 1.58926 -6.78211
head 2.85495 0.751207 -3.33145
rclavicle -2.34566e-014 -2.38542e-015
rhumerus -33.6146 -31.1193 -31.646
rradius 23.918
rwrist -21.3262
rhand -20.461 -9.89179
rfingers 7.12502
rthumb 5.89473 -39.7898
lclavicle -2.34566e-014 -2.38542e-015
lhumerus -14.0664 12.9665 17.6493
lradius 38.5298
lwrist 13.6425
lhand -28.0422 21.9894
lfingers 7.12502
lthumb -1.4267 51.9644
rfemur -18.2199 11.6659 23.9005
rtibia 33.8126
rfoot -15.7292 -20.8912
rtoes -14.8509
lfemur -0.889777 -1.90818 -22.459
ltibia 65.7562
lfoot -6.95162 3.66116
ltoes -11.1159
